<svg width="40" height="40" viewBox="0 0 40 40" fill="none" xmlns="http://www.w3.org/2000/svg">
<path fill-rule="evenodd" clip-rule="evenodd" d="M10 23.3333C11.8409 23.3333 13.3334 24.8257 13.3334 26.6666C13.3334 28.5076 11.8409 30 10 30C8.15906 30 6.66672 28.5076 6.66672 26.6666C6.66672 24.8257 8.15906 23.3333 10 23.3333ZM29.1667 23.3333C31.0077 23.3333 32.5 24.8257 32.5 26.6666C32.5 28.5076 31.0077 30 29.1667 30C27.3258 30 25.8334 28.5076 25.8334 26.6666C25.8334 24.8257 27.3258 23.3333 29.1667 23.3333ZM22.2222 11.6666L22.6667 12L29.0617 16.7966L34.1418 18.0674C35.5384 18.4166 36.5427 19.6182 36.656 21.0335L36.6667 21.3012V27.1346L35.4042 27.4502L34.0397 27.7914C34.1243 27.4225 34.167 27.0451 34.1667 26.6666C34.1667 23.9052 31.9281 21.6666 29.1667 21.6666C26.4053 21.6666 24.1667 23.9052 24.1667 26.6666C24.1667 27.251 24.267 27.812 24.4513 28.3333H14.7155C14.9044 27.798 15.0006 27.2343 15 26.6666C15 23.9052 12.7615 21.6666 10 21.6666C7.23859 21.6666 5 23.9052 5 26.6666C5 26.9201 5.01891 27.169 5.05523 27.4123L3.33336 25.6903V17.7299L3.71969 17.2663L7.88633 12.2663L8.38609 11.6666H22.2222ZM21.1117 15H9.94672L7.16938 18.3333H23.3334L24.2859 17.3808L21.1117 15Z" fill="white"/>
</svg>
