<svg width="40" height="40" viewBox="0 0 40 40" fill="none" xmlns="http://www.w3.org/2000/svg">
<path d="M27.8667 17.3833C24.4667 13.9833 24.1667 7.76666 24.1667 6.66666H21.6667V9.99999H15V6.66666H11.6667C11.6667 4.83333 13.1667 3.33333 15 3.33333H26.6667V4.99999C26.6667 5.13333 26.7333 12.7167 29.6333 15.6167L27.8667 17.3833ZM28.3333 3.33333V6.66666H30V3.33333H28.3333ZM25 20C21.6667 16.6667 21.6667 11.6667 21.6667 11.6667H15V15C15 16.6667 15 16.6667 13.3333 18.3333C11.6667 20 11.6667 21.6667 11.6667 21.6667V33.3333C11.6667 35.1667 13.1667 36.6667 15 36.6667H21.6667C23.5 36.6667 25 35.1667 25 33.3333V20Z" fill="#1B1918"/>
</svg>
