<svg width="134" height="100" viewBox="0 0 134 100" fill="none" xmlns="http://www.w3.org/2000/svg">
<path fill-rule="evenodd" clip-rule="evenodd" d="M4.48487 56.334L4.12787 51.4555L118.949 45.0815L4.48487 56.334Z" fill="#1B1918"/>
<path fill-rule="evenodd" clip-rule="evenodd" d="M21.384 17.2815C21.3574 22.5672 22.0047 26.732 23.0507 31.8741L19.0184 32.7159C17.7762 26.6087 17.2549 21.3946 17.3612 15.1343C34.959 5.3302 50.5011 0.235964 66.0991 0.00805856C85.1116 -0.269819 102.733 6.67552 119.42 15.1343L119.243 22.459L115.653 21.855L115.822 17.5569C98.5639 9.02847 82.4212 4.08292 66.152 4.40216C51.6258 4.68711 35.3736 10.0014 21.384 17.2815ZM28.3446 38.9541C28.3446 38.9541 28.1005 39.3492 27.895 39.1473C27.5277 38.7858 28.8103 38.0994 26.1088 38.2553C24.9451 38.3225 23.5228 38.5344 22.2544 38.8514C20.3385 39.3304 17.4303 40.8698 17.396 41.1092C17.3617 41.3487 21.0912 43.1276 20.8174 43.2644C20.5436 43.4012 17.3617 42.2723 17.3275 42.8197C17.2933 43.3671 17.8408 47.6089 17.9776 47.9169C18.1145 48.2248 18.5592 48.5326 19.2435 48.6352C19.9278 48.7379 23.5203 49.1485 23.5203 49.1485C23.5203 49.1485 15.3772 49.9353 15.1377 49.6274C14.8982 49.3195 16.1985 48.7036 16.3695 47.9169C16.5405 47.1301 16.4721 43.6065 16.301 42.8881C16.13 42.1697 16.0275 41.8619 15.7537 41.6908C15.4799 41.5197 14.5562 41.8275 14.7272 41.2802C14.8982 40.7329 18.3538 37.8594 22.3227 36.1147C26.2916 34.3699 30.9448 32.9332 30.9448 32.9332L30.2264 34.7806C30.2264 34.7806 33.4768 31.2467 38.1376 30.5784C42.7985 29.9101 46.5807 32.249 46.5807 32.249L45.5543 30.9833C45.5543 30.9833 49.6521 30.4211 55.6166 30.6612C61.581 30.9014 72.0686 30.6212 76.2718 30.341C80.475 30.0609 89.3616 29.7007 89.3616 29.7007L88.5609 31.942L49.8122 35.3842C49.8122 35.3842 50.229 35.8019 50.9156 37.1521C51.6023 38.5022 51.5336 39.5092 51.5336 39.5092C47.6029 34.2078 43.3241 31.5729 36.5057 33.2415C32.2508 34.2828 29.3952 37.8174 29.3952 37.8174L28.3446 38.9541ZM55.7196 28.6807C55.7196 28.6807 56.5242 29.1315 57.5864 29.0992C58.6486 29.0669 60.9337 27.49 62.1247 26.8141C65.3209 25.0004 68.1629 23.721 71.0167 22.9028C72.9395 22.3516 88.7405 21.2339 89.1824 23.0017C89.2788 23.3879 88.2283 26.9107 88.2283 26.9107L87.8421 28.2302L89.7411 28.3912C89.7411 28.3912 89.0653 27.4577 89.1618 26.5245C89.2583 25.5913 90.2239 22.7914 90.2239 22.7914C90.2239 22.7914 96.4398 23.4506 97.973 24.0589C99.5063 24.6673 100.285 25.592 98.7275 26.3951C97.1698 27.1982 93.3974 27.5146 93.6651 27.7823C93.9327 28.0499 97.973 27.7336 97.973 27.7336C97.973 27.7336 102.187 27.1928 104.572 26.8998C106.958 26.6069 109.678 26.1467 109.678 26.1467C109.678 26.1467 104.112 24.473 100.011 23.3015C92.0428 21.0252 78.7115 19.9322 70.5063 22.2456C65.3457 23.7008 60.419 26.1615 55.7196 28.6807ZM52.9341 37.0879L56.9241 46.3167L86.3259 43.5619L58.5773 43.8767L52.9341 37.0879ZM90.4692 35.8708C90.4692 35.8708 90.4183 34.3955 91.2325 33.3016C92.0467 32.2077 94.2347 30.5289 94.2347 30.5289C94.2347 30.5289 94.5654 30.1219 94.1838 30.1473C93.8021 30.1728 92.4029 30.936 92.3265 30.7324C92.2501 30.5289 92.7336 29.5877 92.7336 29.5877C100.983 29.031 107.996 28.455 115.883 26.2376C116.959 25.9349 119.819 25.8003 119.954 26.1704C120.089 26.5404 119.248 27.5832 119.348 28.929C119.449 30.2748 121.748 34.76 122.046 36.1533C122.345 37.5466 122.345 40.5983 122.013 40.7642C121.681 40.9301 121.615 39.1056 120.586 37.7788C119.558 36.452 117.899 35.1582 116.572 34.5943C115.245 34.0305 114.515 33.964 114.482 33.5991C114.449 33.2343 114.814 32.6039 115.079 32.5045C115.345 32.405 118.164 32.6041 118.33 32.3387C118.496 32.0733 116.506 29.4527 116.506 29.4527C116.506 29.4527 111.662 30.0168 110.136 30.0498C108.61 30.083 108.643 30.0829 107.88 29.8176C107.117 29.5523 105.757 29.0546 105.724 29.32C105.69 29.5854 106.984 30.4146 107.747 30.8459C108.51 31.2772 109.373 32.3054 109.373 32.3054C103.576 29.1128 94.5805 30.5699 90.4692 35.8708ZM39.4797 35.2525C44.9999 35.2525 49.4748 39.7268 49.4748 45.2462C49.4748 45.7629 49.4354 46.2704 49.3596 46.7658L47.843 46.8501C47.9421 46.3307 47.9942 45.7946 47.9942 45.2462C47.9942 40.5444 44.1822 36.7329 39.4797 36.7329C34.7774 36.7329 30.9653 40.5444 30.9653 45.2462C30.9653 46.3282 31.1677 47.3629 31.5358 48.315H29.9657C29.6539 47.348 29.4847 46.3169 29.4847 45.2462C29.4847 39.7268 33.9596 35.2525 39.4797 35.2525ZM101.476 33.0845C106.996 33.0845 111.471 37.5588 111.471 43.0782C111.471 43.2672 111.466 43.4548 111.455 43.6413L109.966 43.724C109.982 43.5108 109.991 43.2955 109.991 43.0782C109.991 38.3764 106.178 34.5649 101.476 34.5649C96.7737 34.5649 92.9616 38.3764 92.9616 43.0782C92.9616 43.6187 93.0121 44.1473 93.1086 44.6598L91.6195 44.7424C91.5286 44.2013 91.4811 43.6453 91.4811 43.0782C91.4811 37.5588 95.956 33.0845 101.476 33.0845Z" fill="#1B1918"/>
<path fill-rule="evenodd" clip-rule="evenodd" d="M46.2022 79.6557C52.5371 85.7435 59.1102 91.419 66.4322 96.2668C69.3929 94.3065 71.9644 92.5239 74.7353 90.2407C80.4627 85.521 85.3079 80.7987 90.5803 75.719L93.719 77.0179C88.4874 82.6188 82.4909 87.9091 76.5684 92.7758C73.6337 95.1872 70.8883 97.0868 67.7393 99.1455L66.4322 100L65.1251 99.1455C57.065 93.8762 49.8986 87.5725 42.9888 80.8968L41.9485 79.8918L46.2022 79.6557Z" fill="#E30016"/>
<path fill-rule="evenodd" clip-rule="evenodd" d="M128.05 70.2138L128.407 75.0923L13.5861 81.4664L128.05 70.2138Z" fill="#E30016"/>
<path fill-rule="evenodd" clip-rule="evenodd" d="M39.3768 43.9612C40.056 43.9612 40.6066 44.5117 40.6066 45.1908C40.6066 45.8698 40.056 46.4203 39.3768 46.4203C38.6977 46.4203 38.1471 45.8698 38.1471 45.1908C38.1471 44.5117 38.6977 43.9612 39.3768 43.9612Z" fill="#1B1918"/>
<path fill-rule="evenodd" clip-rule="evenodd" d="M101.373 41.7932C102.052 41.7932 102.603 42.3436 102.603 43.0228C102.603 43.7018 102.052 44.2523 101.373 44.2523C100.694 44.2523 100.143 43.7018 100.143 43.0228C100.143 42.3436 100.694 41.7932 101.373 41.7932Z" fill="#1B1918"/>
<path fill-rule="evenodd" clip-rule="evenodd" d="M36.3189 47.6677C36.3189 47.6677 36.2429 45.56 35.8442 44.7815C35.4455 44.0031 34.5909 43.8132 33.9262 43.8322C33.2616 43.8512 32.597 43.9082 32.597 43.9082C32.597 43.9082 32.8438 42.2371 33.2806 42.1423C33.7174 42.0474 35.4643 43.1297 36.3189 42.8069C37.1736 42.4841 37.6863 41.8955 37.8761 41.25C38.066 40.6044 37.9141 38.8005 37.9141 38.8005C37.9141 38.8005 37.7812 38.3069 38.5218 38.2499C39.2625 38.1929 40.3638 38.0029 40.7057 38.3827C41.0474 38.7626 40.8005 40.7942 40.9335 41.2689C41.0664 41.7436 42.6236 42.6929 42.6236 42.6929C42.6236 42.6929 43.5352 42.674 43.972 42.56C44.4088 42.446 45.2443 41.6106 45.5861 41.8005C45.9279 41.9905 45.852 42.427 46.0039 42.9207C46.1558 43.4145 46.5546 43.6044 46.2128 43.7752C45.871 43.9461 44.2757 43.7182 43.5731 44.155C42.8706 44.5917 42.7945 45.1992 42.7376 45.56C42.6807 45.9209 42.6237 47.2689 42.3579 47.3639C42.092 47.4589 41.8451 47.0222 41.94 46.7563C42.0349 46.4904 42.4907 44.7627 41.8261 43.7183C41.1614 42.674 40.3449 42.2183 39.2434 42.2562C38.142 42.2942 36.9646 42.9019 36.7937 44.1741C36.6228 45.4462 36.7557 46.3765 37.0406 46.8132C37.3255 47.25 37.7622 47.3448 37.6102 47.5917C37.4583 47.8386 36.3189 47.6677 36.3189 47.6677Z" fill="#E30016"/>
<path fill-rule="evenodd" clip-rule="evenodd" d="M98.2406 44.4737C98.1743 43.8236 98.0532 43.029 97.8405 42.6135C97.4418 41.8352 96.5871 41.6452 95.9225 41.6642C95.2579 41.6832 94.5933 41.7402 94.5933 41.7402C94.5933 41.7402 94.8401 40.0691 95.2769 39.9743C95.7137 39.8794 97.4606 40.9617 98.3153 40.6389C99.1699 40.3161 99.6826 39.7275 99.8724 39.082C100.062 38.4364 99.9104 36.6325 99.9104 36.6325C99.9104 36.6325 99.7774 36.1389 100.518 36.0819C101.259 36.0249 102.36 35.8349 102.702 36.2147C103.044 36.5946 102.797 38.6262 102.93 39.1009C103.063 39.5756 104.62 40.525 104.62 40.525C104.62 40.525 105.531 40.506 105.968 40.3921C106.405 40.2781 107.241 39.4426 107.582 39.6325C107.924 39.8225 107.848 40.259 108 40.7527C108.152 41.2465 108.551 41.4364 108.209 41.6072C107.867 41.7782 106.272 41.5502 105.569 41.987C104.867 42.4237 104.727 43.0268 104.734 43.392C104.749 44.157 104.024 44.6891 104.171 43.2444C104.229 42.6789 104.133 42.0387 103.822 41.5503C103.158 40.5061 102.341 40.0503 101.24 40.0882C100.138 40.1262 98.9609 40.7339 98.79 42.0061C98.6554 43.0078 98.7879 43.778 98.8773 44.3013C98.9986 45.0132 98.2871 44.9288 98.2406 44.4737Z" fill="#E30016"/>
<path fill-rule="evenodd" clip-rule="evenodd" d="M11.0431 77.9446L12.3044 69.2351L16.8346 68.8731C18.8729 68.7101 20.4785 68.9897 21.6516 69.7117C22.8245 70.4338 23.3203 71.421 23.1389 72.6735C22.9586 73.9177 22.1591 75.0065 20.7403 75.9398C19.3214 76.8731 17.599 77.4207 15.5731 77.5826L11.0431 77.9446ZM0 67.1938L7.9234 57.9467L9.3316 57.8364L13.5491 66.1329L11.9315 66.2596L10.8573 64.0799L3.60703 64.6476L1.5415 67.0729L0 67.1938ZM4.38364 63.718L10.4541 63.2428L8.36668 59.0376L4.38364 63.718ZM20.9989 65.6842C19.3116 65.8164 18.0365 65.592 17.1737 65.011C16.3106 64.43 16.0061 63.538 16.2602 62.3353L17.3299 57.2714L18.8332 57.1538L17.7768 62.1555C17.5788 63.0928 17.7842 63.7885 18.3933 64.2424C19.0023 64.6965 19.9474 64.8733 21.2289 64.773C22.4847 64.6747 23.5196 64.3531 24.3334 63.8081C25.1473 63.263 25.653 62.5218 25.851 61.5845L26.9206 56.5206L28.4242 56.4028L27.3703 61.3922C27.1074 62.6364 26.4049 63.6295 25.2623 64.3716C24.1201 65.1135 22.6989 65.5511 20.9989 65.6842ZM33.6634 64.5581L35.3114 56.7568L30.8393 57.107L31.0311 56.1987L41.4974 55.3793L41.3055 56.2876L36.8337 56.6376L35.1857 64.4389L33.6634 64.5581ZM52.8844 61.8969C51.4164 62.8806 49.693 63.45 47.7139 63.6049C45.7349 63.7598 44.2038 63.4473 43.1208 62.6674C42.038 61.8875 41.6278 60.8754 41.8905 59.6312C42.1516 58.3953 43.0162 57.2854 44.4844 56.3017C45.9521 55.3181 47.6757 54.7487 49.6547 54.5938C51.6337 54.4388 53.1648 54.7513 54.2477 55.5314C55.3305 56.3113 55.7408 57.3232 55.4781 58.5674C55.217 59.8034 54.3523 60.9132 52.8844 61.8969ZM44.4062 61.9428C45.2548 62.5615 46.434 62.8119 47.9438 62.6937C49.4535 62.5755 50.7732 62.1316 51.9027 61.362C53.0322 60.5924 53.7036 59.7016 53.9174 58.6896C54.1295 57.6859 53.811 56.8748 52.9624 56.2558C52.1137 55.6372 50.9345 55.3868 49.4248 55.505C47.9152 55.6232 46.5955 56.0671 45.4659 56.8367C44.3363 57.6064 43.665 58.4971 43.4513 59.509C43.2391 60.5127 43.5575 61.3239 44.4062 61.9428ZM63.4448 62.2264L65.2845 53.5169L70.9553 53.073C72.5159 52.9508 73.6223 53.1171 74.2748 53.5717C74.7634 53.9169 74.9489 54.3673 74.8316 54.9231C74.6318 55.8686 73.7859 56.5956 72.2936 57.1041C74.1177 57.3283 74.9193 57.9631 74.6985 59.0082C74.5426 59.7465 73.9824 60.3614 73.0176 60.8529C72.0529 61.3445 70.8349 61.6479 69.3633 61.7631L63.4448 62.2264ZM65.9491 57.2827L69.8881 56.9742C70.8141 56.9018 71.5853 56.7069 72.2014 56.3894C72.8173 56.0719 73.1786 55.6603 73.2856 55.1542C73.3784 54.7147 73.1947 54.3884 72.7342 54.1757C72.2739 53.963 71.5744 53.8933 70.6356 53.9667L66.5824 54.2841L65.9491 57.2827ZM65.1159 61.2269L69.5878 60.8768C70.6027 60.7973 71.4312 60.5958 72.0735 60.2722C72.7159 59.9486 73.0896 59.538 73.1947 59.0403C73.2963 58.5593 73.073 58.2138 72.5247 58.0038C71.9763 57.7939 71.1249 57.734 69.9705 57.8244L65.7651 58.1537L65.1159 61.2269ZM77.1842 61.1507L79.0239 52.4412L84.7518 51.9928C86.3885 51.8647 87.5895 52.0562 88.3548 52.5673C88.9454 52.9615 89.1653 53.5154 89.0147 54.2287C88.8674 54.9254 88.4184 55.5153 87.6676 55.9984C86.9167 56.4813 85.9818 56.8319 84.8627 57.0499L88.2025 60.2881L86.3566 60.4327L83.2084 57.3508L79.4025 57.6488L78.6877 61.0331L77.1842 61.1507ZM79.5891 56.7654L83.6806 56.445C84.6954 56.3656 85.5541 56.1393 86.2568 55.7661C86.9595 55.3929 87.3704 54.9245 87.4895 54.3603C87.6035 53.8212 87.3911 53.4238 86.8523 53.1682C86.3137 52.9127 85.5116 52.8265 84.446 52.91L80.3357 53.2318L79.5891 56.7654ZM91.076 60.0631L92.9155 51.3536L94.4189 51.236L92.5792 59.9455L91.076 60.0631ZM96.4804 59.6401L98.32 50.9305L99.8235 50.8128L98.1756 58.6141L105.673 58.0271L105.482 58.9354L96.4804 59.6401ZM108.26 58.7178L110.099 50.0083L111.603 49.8905L109.955 57.6918L117.453 57.1048L117.261 58.0131L108.26 58.7178ZM130.602 55.8123C129.134 56.796 127.41 57.3653 125.431 57.5202C123.452 57.6752 121.921 57.3627 120.838 56.5828C119.755 55.8028 119.345 54.7908 119.608 53.5466C119.869 52.3106 120.733 51.2007 122.201 50.2171C123.669 49.2334 125.393 48.6641 127.372 48.5091C129.351 48.3542 130.882 48.6667 131.965 49.4466C133.048 50.2266 133.458 51.2386 133.195 52.4828C132.934 53.7188 132.069 54.8286 130.602 55.8123ZM122.123 55.8581C122.972 56.4768 124.151 56.7273 125.661 56.6091C127.171 56.4909 128.49 56.0469 129.62 55.2774C130.749 54.5076 131.421 53.6169 131.635 52.605C131.847 51.6013 131.528 50.7902 130.68 50.1712C129.831 49.5525 128.652 49.3021 127.142 49.4204C125.632 49.5385 124.313 49.9825 123.183 50.752C122.054 51.5218 121.382 52.4124 121.168 53.4244C120.956 54.4281 121.275 55.2392 122.123 55.8581ZM12.6474 76.9187L15.7046 76.6743C17.3328 76.5441 18.6881 76.114 19.7703 75.3839C20.8527 74.6538 21.4662 73.791 21.6104 72.7957C21.7532 71.8086 21.3749 71.0272 20.4755 70.4514C19.5762 69.8756 18.3188 69.6522 16.703 69.7813L13.6457 70.0256L12.6474 76.9187ZM25.6214 76.7795L26.8829 68.07L36.3159 67.3161L36.1861 68.2119L28.2258 68.8481L27.7952 71.8217L34.9165 71.2526L34.7868 72.1485L27.6654 72.7175L27.2239 75.7659L35.2774 75.1223L35.1476 76.0182L25.6214 76.7795ZM41.5608 75.5057L42.6907 67.7044L38.3095 68.0545L38.4412 67.1463L48.6945 66.3268L48.5629 67.235L44.182 67.5851L43.0521 75.3864L41.5608 75.5057ZM47.3959 75.0393L54.6132 65.7922L55.9929 65.682L60.6693 73.9785L59.0846 74.1052L57.8894 71.9255L50.7866 72.4932L48.9059 74.9186L47.3959 75.0393ZM51.4924 71.5636L57.4394 71.0883L55.1186 66.8832L51.4924 71.5636ZM63.3721 73.7625L64.6336 65.053L66.1065 64.9352L64.8449 73.6447L63.3721 73.7625ZM68.6667 73.3393L69.928 64.6298L71.4009 64.5122L70.2709 72.3135L77.6161 71.7263L77.4846 72.6346L68.6667 73.3393ZM80.3367 72.4067L81.5982 63.6971L83.071 63.5794L81.8095 72.289L80.3367 72.4067ZM85.6312 71.9836L86.8927 63.2741L88.2722 63.1638L95.4825 69.4868L96.4935 62.5068L97.9289 62.392L96.6676 71.1015L95.4931 71.1955L88.1011 64.727L87.0668 71.8688L85.6312 71.9836ZM111.827 68.7218C110.207 69.7284 108.397 70.3117 106.396 70.4716C104.395 70.6315 102.851 70.3306 101.763 69.5689C100.676 68.8073 100.225 67.7837 100.411 66.498C100.589 65.2704 101.358 64.1636 102.717 63.1777C104.075 62.1919 105.706 61.623 107.607 61.4709C108.651 61.3875 109.535 61.4111 110.26 61.5419C110.984 61.6726 111.666 61.9051 112.305 62.2393L111.247 63.0617C110.199 62.4896 108.924 62.2634 107.42 62.3836C105.991 62.4979 104.756 62.9429 103.716 63.719C102.676 64.4948 102.084 65.3805 101.94 66.3758C101.788 67.4292 102.131 68.2586 102.971 68.8638C103.811 69.4689 105.014 69.709 106.58 69.5838C108.021 69.4685 109.319 69.0779 110.472 68.4118L110.785 66.2469L106.814 66.5642L106.942 65.6809L112.33 65.2504L111.827 68.7218Z" fill="#1B1918"/>
</svg>
