<svg width="40" height="40" viewBox="0 0 40 40" fill="none" xmlns="http://www.w3.org/2000/svg">
<path d="M38.125 17.5C37.8906 17.1094 35.5773 16.1102 35.5773 16.1102C35.9797 15.9023 36.2547 15.8594 36.2547 15C36.2547 14.0625 36.25 13.75 35.625 13.75H33.5047C33.4961 13.7312 33.4867 13.7117 33.4781 13.6922C32.1094 10.7031 31.9258 9.94766 29.8844 8.93047C27.1461 7.56875 22.0125 7.5 20 7.5C17.9875 7.5 12.8539 7.56875 10.118 8.93047C8.07422 9.94609 8.125 10.4687 6.52422 13.6922C6.52422 13.7008 6.50781 13.7234 6.49297 13.75H4.37031C3.75 13.75 3.74531 14.0625 3.74531 15C3.74531 15.8594 4.02031 15.9023 4.42266 16.1102C4.42266 16.1102 2.1875 17.1875 1.875 17.5C1.5625 17.8125 1.25 20 1.25 23.75C1.25 27.5 1.5625 31.25 1.5625 31.25H2.49531C2.49531 32.3438 2.65625 32.5 3.125 32.5H9.375C9.84375 32.5 10 32.3438 10 31.25H30C30 32.3438 30.1562 32.5 30.625 32.5H37.0312C37.3438 32.5 37.5 32.2656 37.5 31.25H38.4375C38.4375 31.25 38.75 27.4219 38.75 23.75C38.75 20.0781 38.3594 17.8906 38.125 17.5ZM9.78594 21.0109C8.36306 21.1665 6.93291 21.2463 5.50156 21.25C3.90625 21.25 3.85156 21.3523 3.73906 20.3562C3.69677 19.9003 3.71015 19.441 3.77891 18.9883L3.82812 18.75H4.0625C5 18.75 5.88047 18.7898 7.54297 19.2797C8.38854 19.5334 9.18385 19.9315 9.89375 20.4562C10.2344 20.7031 10.3125 20.9375 10.3125 20.9375L9.78594 21.0109ZM29.0953 26.6359L28.75 27.5H11.25C11.25 27.5 11.2805 27.4523 10.8594 26.6266C10.5469 26.0156 10.9375 25.625 11.5555 25.4031C12.7523 24.9719 16.25 23.75 20 23.75C23.75 23.75 27.3172 24.8031 28.4766 25.4031C28.9062 25.625 29.4398 25.7812 29.0953 26.6406V26.6359ZM9.01719 15.9695C8.76484 15.9841 8.51191 15.9859 8.25938 15.975C8.46328 15.6125 8.57656 15.2086 8.77578 14.7867C9.40078 13.4586 10.1156 11.9555 11.3883 11.3219C13.2273 10.4062 17.0391 9.99375 20 9.99375C22.9609 9.99375 26.7727 10.4031 28.6117 11.3219C29.8844 11.9555 30.5961 13.4594 31.2242 14.7867C31.425 15.2125 31.5367 15.6195 31.7461 15.9844C31.5898 15.993 31.4102 15.9844 30.9813 15.9695H9.01719ZM36.1828 20.3531C36.0156 21.3281 36.1719 21.25 34.4984 21.25C33.0671 21.2463 31.6369 21.1665 30.2141 21.0109C29.9914 20.9711 29.9281 20.5953 30.1062 20.4562C30.8125 19.9256 31.6089 19.527 32.457 19.2797C34.1195 18.7898 35.0555 18.7242 35.9797 18.757C36.0418 18.7594 36.1008 18.7846 36.1453 18.8279C36.1899 18.8712 36.2169 18.9294 36.2211 18.9914C36.2652 19.4462 36.2524 19.9047 36.1828 20.3562V20.3531Z" fill="#1B1918"/>
</svg>
