<svg width="40" height="40" viewBox="0 0 40 40" fill="none" xmlns="http://www.w3.org/2000/svg">
<g clip-path="url(#clip0_5_41)">
<path d="M20 8L23.0199 15.43L31 16.0233L24.8832 21.2088L26.7979 29L20 24.769L13.2021 29L15.1168 21.2088L9 16.0233L16.9801 15.43L20 8Z" fill="#1B1918"/>
<path fill-rule="evenodd" clip-rule="evenodd" d="M20 0C20.3701 0 20.725 0.14701 20.9867 0.408688C21.2483 0.670367 21.3953 1.02528 21.3953 1.39535V5.11628C21.3953 5.48635 21.2483 5.84126 20.9867 6.10294C20.725 6.36462 20.3701 6.51163 20 6.51163C19.6299 6.51163 19.275 6.36462 19.0133 6.10294C18.7517 5.84126 18.6047 5.48635 18.6047 5.11628V1.39535C18.6047 1.02528 18.7517 0.670367 19.0133 0.408688C19.275 0.14701 19.6299 0 20 0ZM32.1488 7.85116C32.4101 8.11279 32.5569 8.46744 32.5569 8.83721C32.5569 9.20698 32.4101 9.56163 32.1488 9.82326L31.5107 10.4614C31.2462 10.7079 30.8963 10.8421 30.5348 10.8357C30.1734 10.8293 29.8284 10.6829 29.5728 10.4272C29.3171 10.1716 29.1707 9.82665 29.1643 9.46516C29.1579 9.10367 29.2921 8.75381 29.5386 8.4893L30.1767 7.85116C30.4384 7.58986 30.793 7.44309 31.1628 7.44309C31.5326 7.44309 31.8872 7.58986 32.1488 7.85116ZM7.85116 7.85116C8.11279 7.58986 8.46744 7.44309 8.83721 7.44309C9.20698 7.44309 9.56163 7.58986 9.82326 7.85116L10.4633 8.4893C10.7173 8.75259 10.8578 9.10512 10.8544 9.47098C10.8511 9.83683 10.7042 10.1867 10.4453 10.4453C10.1865 10.7039 9.83647 10.8505 9.47061 10.8535C9.10475 10.8565 8.75235 10.7157 8.4893 10.4614L7.85116 9.82326C7.58986 9.56163 7.44309 9.20698 7.44309 8.83721C7.44309 8.46744 7.58986 8.11279 7.85116 7.85116ZM0 20C0 19.6299 0.14701 19.275 0.408688 19.0133C0.670367 18.7517 1.02528 18.6047 1.39535 18.6047H5.11628C5.48635 18.6047 5.84126 18.7517 6.10294 19.0133C6.36462 19.275 6.51163 19.6299 6.51163 20C6.51163 20.3701 6.36462 20.725 6.10294 20.9867C5.84126 21.2483 5.48635 21.3953 5.11628 21.3953H1.39535C1.02528 21.3953 0.670367 21.2483 0.408688 20.9867C0.14701 20.725 0 20.3701 0 20ZM33.4884 20C33.4884 19.6299 33.6354 19.275 33.8971 19.0133C34.1587 18.7517 34.5137 18.6047 34.8837 18.6047H38.6047C38.9747 18.6047 39.3296 18.7517 39.5913 19.0133C39.853 19.275 40 19.6299 40 20C40 20.3701 39.853 20.725 39.5913 20.9867C39.3296 21.2483 38.9747 21.3953 38.6047 21.3953H34.8837C34.5137 21.3953 34.1587 21.2483 33.8971 20.9867C33.6354 20.725 33.4884 20.3701 33.4884 20ZM10.4614 29.5386C10.7227 29.8002 10.8695 30.1549 10.8695 30.5247C10.8695 30.8944 10.7227 31.2491 10.4614 31.5107L9.82326 32.1488C9.55875 32.3953 9.20889 32.5295 8.8474 32.5231C8.48591 32.5167 8.14101 32.3703 7.88535 32.1146C7.6297 31.859 7.48326 31.5141 7.47688 31.1526C7.47051 30.7911 7.60469 30.4413 7.85116 30.1767L8.4893 29.5386C8.75093 29.2773 9.10558 29.1305 9.47535 29.1305C9.84512 29.1305 10.1998 29.2773 10.4614 29.5386ZM29.5367 29.5386C29.6663 29.4089 29.8202 29.3061 29.9895 29.2359C30.1589 29.1657 30.3404 29.1296 30.5237 29.1296C30.707 29.1296 30.8886 29.1657 31.0579 29.2359C31.2273 29.3061 31.3811 29.4089 31.5107 29.5386L32.1488 30.1767C32.3953 30.4413 32.5295 30.7911 32.5231 31.1526C32.5167 31.5141 32.3703 31.859 32.1146 32.1146C31.859 32.3703 31.5141 32.5167 31.1526 32.5231C30.7911 32.5295 30.4413 32.3953 30.1767 32.1488L29.5386 31.5107C29.2773 31.2491 29.1305 30.8944 29.1305 30.5247C29.1305 30.1549 29.2773 29.8002 29.5386 29.5386M20 33.4884C20.3701 33.4884 20.725 33.6354 20.9867 33.8971C21.2483 34.1587 21.3953 34.5137 21.3953 34.8837V38.6047C21.3953 38.9747 21.2483 39.3296 20.9867 39.5913C20.725 39.853 20.3701 40 20 40C19.6299 40 19.275 39.853 19.0133 39.5913C18.7517 39.3296 18.6047 38.9747 18.6047 38.6047V34.8837C18.6047 34.5137 18.7517 34.1587 19.0133 33.8971C19.275 33.6354 19.6299 33.4884 20 33.4884Z" fill="#1B1918"/>
<path d="M20 8L16.9801 15.43L9 16.0233L15.1168 21.2088L13.2021 29L20 24.769M20 8L23.0199 15.43L31 16.0233L24.8832 21.2088L26.7979 29L20 24.769" stroke="#1B1918" stroke-width="2.5" stroke-linecap="round" stroke-linejoin="round"/>
</g>
<defs>
<clipPath id="clip0_5_41">
<rect width="40" height="40" fill="white"/>
</clipPath>
</defs>
</svg>
